<mxfile host="app.diagrams.net" modified="2022-06-16T14:14:06.053Z" agent="5.0 (X11; Linux x86_64) AppleWebKit/537.36 (KHTML, like Gecko) Chrome/102.0.0.0 Safari/537.36" etag="dVo_ITWPhUrRaLf1OXc7" version="20.0.1" type="github">
  <diagram id="_jH37nIgKsbNKgRoWmOm" name="Page-1">
    <mxGraphModel dx="1767" dy="1126" grid="1" gridSize="10" guides="1" tooltips="1" connect="1" arrows="1" fold="1" page="1" pageScale="1" pageWidth="850" pageHeight="1100" math="0" shadow="0">
      <root>
        <mxCell id="0" />
        <mxCell id="1" parent="0" />
        <mxCell id="y87tl3NbrVbizZRoQz8M-1" value="" style="rounded=0;whiteSpace=wrap;html=1;strokeWidth=4;fillColor=none;dashed=1;" vertex="1" parent="1">
          <mxGeometry x="255" y="700" width="350" height="260" as="geometry" />
        </mxCell>
        <mxCell id="y87tl3NbrVbizZRoQz8M-2" value="" style="rounded=0;whiteSpace=wrap;html=1;strokeWidth=4;fillColor=none;dashed=1;" vertex="1" parent="1">
          <mxGeometry x="70" y="110" width="700" height="390" as="geometry" />
        </mxCell>
        <mxCell id="y87tl3NbrVbizZRoQz8M-3" value="redact-usage-report-function-app" style="rounded=1;whiteSpace=wrap;html=1;" vertex="1" parent="1">
          <mxGeometry x="262" y="40" width="238" height="40" as="geometry" />
        </mxCell>
        <mxCell id="y87tl3NbrVbizZRoQz8M-4" value="portal-usage-report" style="rounded=1;whiteSpace=wrap;html=1;" vertex="1" parent="1">
          <mxGeometry x="325" y="640" width="140" height="40" as="geometry" />
        </mxCell>
        <mxCell id="y87tl3NbrVbizZRoQz8M-5" value="task DB" style="shape=cylinder3;whiteSpace=wrap;html=1;boundedLbl=1;backgroundOutline=1;size=15;rounded=0;strokeWidth=1;fillColor=default;" vertex="1" parent="1">
          <mxGeometry x="195" y="540" width="60" height="80" as="geometry" />
        </mxCell>
        <mxCell id="y87tl3NbrVbizZRoQz8M-6" value="insights DB" style="shape=cylinder3;whiteSpace=wrap;html=1;boundedLbl=1;backgroundOutline=1;size=15;rounded=0;strokeWidth=1;fillColor=default;" vertex="1" parent="1">
          <mxGeometry x="90" y="540" width="60" height="80" as="geometry" />
        </mxCell>
        <mxCell id="y87tl3NbrVbizZRoQz8M-7" style="edgeStyle=orthogonalEdgeStyle;rounded=0;orthogonalLoop=1;jettySize=auto;html=1;entryX=1;entryY=0.5;entryDx=0;entryDy=0;startArrow=classic;startFill=1;exitX=0.5;exitY=0;exitDx=0;exitDy=0;exitPerimeter=0;" edge="1" parent="1" source="y87tl3NbrVbizZRoQz8M-8" target="y87tl3NbrVbizZRoQz8M-20">
          <mxGeometry relative="1" as="geometry">
            <Array as="points">
              <mxPoint x="569" y="850" />
            </Array>
          </mxGeometry>
        </mxCell>
        <mxCell id="y87tl3NbrVbizZRoQz8M-8" value="portal DB" style="shape=cylinder3;whiteSpace=wrap;html=1;boundedLbl=1;backgroundOutline=1;size=15;rounded=0;strokeWidth=1;fillColor=default;" vertex="1" parent="1">
          <mxGeometry x="539" y="1000" width="60" height="80" as="geometry" />
        </mxCell>
        <mxCell id="y87tl3NbrVbizZRoQz8M-9" value="Stripe" style="rounded=1;whiteSpace=wrap;html=1;strokeWidth=1;fillColor=default;" vertex="1" parent="1">
          <mxGeometry x="401" y="1000" width="120" height="60" as="geometry" />
        </mxCell>
        <mxCell id="y87tl3NbrVbizZRoQz8M-10" style="edgeStyle=orthogonalEdgeStyle;rounded=0;orthogonalLoop=1;jettySize=auto;html=1;entryX=0;entryY=0.5;entryDx=0;entryDy=0;startArrow=none;startFill=0;" edge="1" parent="1" source="y87tl3NbrVbizZRoQz8M-13" target="y87tl3NbrVbizZRoQz8M-29">
          <mxGeometry relative="1" as="geometry">
            <Array as="points">
              <mxPoint x="449" y="260" />
            </Array>
          </mxGeometry>
        </mxCell>
        <mxCell id="y87tl3NbrVbizZRoQz8M-11" style="edgeStyle=orthogonalEdgeStyle;rounded=0;orthogonalLoop=1;jettySize=auto;html=1;entryX=0;entryY=0.5;entryDx=0;entryDy=0;startArrow=none;startFill=0;" edge="1" parent="1" source="y87tl3NbrVbizZRoQz8M-13" target="y87tl3NbrVbizZRoQz8M-32">
          <mxGeometry relative="1" as="geometry">
            <Array as="points">
              <mxPoint x="449" y="340" />
            </Array>
          </mxGeometry>
        </mxCell>
        <mxCell id="y87tl3NbrVbizZRoQz8M-12" style="edgeStyle=orthogonalEdgeStyle;rounded=0;orthogonalLoop=1;jettySize=auto;html=1;entryX=0;entryY=0.5;entryDx=0;entryDy=0;startArrow=none;startFill=0;" edge="1" parent="1" source="y87tl3NbrVbizZRoQz8M-13" target="y87tl3NbrVbizZRoQz8M-35">
          <mxGeometry relative="1" as="geometry">
            <Array as="points">
              <mxPoint x="449" y="420" />
            </Array>
          </mxGeometry>
        </mxCell>
        <mxCell id="y87tl3NbrVbizZRoQz8M-13" value="Service Bus" style="rounded=1;whiteSpace=wrap;html=1;strokeWidth=1;fillColor=default;" vertex="1" parent="1">
          <mxGeometry x="389" y="130" width="121" height="40" as="geometry" />
        </mxCell>
        <mxCell id="y87tl3NbrVbizZRoQz8M-14" value="" style="aspect=fixed;html=1;points=[];align=center;image;fontSize=12;image=img/lib/azure2/compute/Function_Apps.svg;rounded=0;strokeWidth=1;fillColor=default;" vertex="1" parent="1">
          <mxGeometry x="485" y="630" width="68" height="60" as="geometry" />
        </mxCell>
        <mxCell id="y87tl3NbrVbizZRoQz8M-15" value="" style="aspect=fixed;html=1;points=[];align=center;image;fontSize=12;image=img/lib/azure2/compute/Function_Apps.svg;rounded=0;strokeWidth=1;fillColor=default;" vertex="1" parent="1">
          <mxGeometry x="521" y="30" width="68" height="60" as="geometry" />
        </mxCell>
        <mxCell id="y87tl3NbrVbizZRoQz8M-16" value="fn" style="shape=mxgraph.electrical.abstract.function;html=1;shadow=0;dashed=0;align=center;strokeWidth=1;fontSize=24;rounded=0;fillColor=default;" vertex="1" parent="1">
          <mxGeometry x="281" y="830" width="40" height="40" as="geometry" />
        </mxCell>
        <mxCell id="y87tl3NbrVbizZRoQz8M-17" style="edgeStyle=orthogonalEdgeStyle;rounded=0;orthogonalLoop=1;jettySize=auto;html=1;entryX=0.5;entryY=0;entryDx=0;entryDy=0;" edge="1" parent="1" source="y87tl3NbrVbizZRoQz8M-20" target="y87tl3NbrVbizZRoQz8M-9">
          <mxGeometry relative="1" as="geometry">
            <Array as="points">
              <mxPoint x="421" y="910" />
              <mxPoint x="461" y="910" />
            </Array>
          </mxGeometry>
        </mxCell>
        <mxCell id="y87tl3NbrVbizZRoQz8M-18" value="if ( portal user )" style="edgeLabel;html=1;align=center;verticalAlign=middle;resizable=0;points=[];" vertex="1" connectable="0" parent="y87tl3NbrVbizZRoQz8M-17">
          <mxGeometry x="-0.075" y="5" relative="1" as="geometry">
            <mxPoint as="offset" />
          </mxGeometry>
        </mxCell>
        <mxCell id="y87tl3NbrVbizZRoQz8M-19" style="edgeStyle=orthogonalEdgeStyle;rounded=0;orthogonalLoop=1;jettySize=auto;html=1;entryX=0.5;entryY=0;entryDx=0;entryDy=0;" edge="1" parent="1" source="y87tl3NbrVbizZRoQz8M-20" target="y87tl3NbrVbizZRoQz8M-23">
          <mxGeometry relative="1" as="geometry">
            <Array as="points">
              <mxPoint x="381" y="900" />
              <mxPoint x="321" y="900" />
            </Array>
          </mxGeometry>
        </mxCell>
        <mxCell id="y87tl3NbrVbizZRoQz8M-20" value="redact_consumption_report" style="rounded=1;whiteSpace=wrap;html=1;" vertex="1" parent="1">
          <mxGeometry x="341" y="830" width="160" height="40" as="geometry" />
        </mxCell>
        <mxCell id="y87tl3NbrVbizZRoQz8M-21" style="edgeStyle=orthogonalEdgeStyle;rounded=0;orthogonalLoop=1;jettySize=auto;html=1;entryX=0.5;entryY=0;entryDx=0;entryDy=0;" edge="1" parent="1" source="y87tl3NbrVbizZRoQz8M-22" target="y87tl3NbrVbizZRoQz8M-20">
          <mxGeometry relative="1" as="geometry" />
        </mxCell>
        <mxCell id="y87tl3NbrVbizZRoQz8M-22" value="HTTP" style="rounded=1;whiteSpace=wrap;html=1;strokeWidth=1;fillColor=default;" vertex="1" parent="1">
          <mxGeometry x="381" y="720" width="80" height="40" as="geometry" />
        </mxCell>
        <mxCell id="y87tl3NbrVbizZRoQz8M-23" value="Kibana" style="rounded=1;whiteSpace=wrap;html=1;strokeWidth=1;fillColor=default;" vertex="1" parent="1">
          <mxGeometry x="261" y="1000" width="120" height="60" as="geometry" />
        </mxCell>
        <mxCell id="y87tl3NbrVbizZRoQz8M-24" style="edgeStyle=orthogonalEdgeStyle;rounded=0;orthogonalLoop=1;jettySize=auto;html=1;entryX=1;entryY=0.5;entryDx=0;entryDy=0;startArrow=none;startFill=0;" edge="1" parent="1" source="y87tl3NbrVbizZRoQz8M-26" target="y87tl3NbrVbizZRoQz8M-42">
          <mxGeometry relative="1" as="geometry">
            <Array as="points">
              <mxPoint x="270" y="210" />
              <mxPoint x="370" y="210" />
              <mxPoint x="370" y="260" />
            </Array>
          </mxGeometry>
        </mxCell>
        <mxCell id="y87tl3NbrVbizZRoQz8M-25" style="edgeStyle=orthogonalEdgeStyle;rounded=0;orthogonalLoop=1;jettySize=auto;html=1;entryX=1;entryY=0.5;entryDx=0;entryDy=0;startArrow=none;startFill=0;" edge="1" parent="1" source="y87tl3NbrVbizZRoQz8M-26" target="y87tl3NbrVbizZRoQz8M-39">
          <mxGeometry relative="1" as="geometry">
            <Array as="points">
              <mxPoint x="270" y="210" />
              <mxPoint x="370" y="210" />
              <mxPoint x="370" y="340" />
            </Array>
          </mxGeometry>
        </mxCell>
        <mxCell id="y87tl3NbrVbizZRoQz8M-26" value="HTTP" style="rounded=1;whiteSpace=wrap;html=1;strokeWidth=1;fillColor=default;" vertex="1" parent="1">
          <mxGeometry x="210" y="130" width="120" height="40" as="geometry" />
        </mxCell>
        <mxCell id="y87tl3NbrVbizZRoQz8M-27" value="fn" style="shape=mxgraph.electrical.abstract.function;html=1;shadow=0;dashed=0;align=center;strokeWidth=1;fontSize=24;rounded=0;fillColor=default;" vertex="1" parent="1">
          <mxGeometry x="501" y="240" width="40" height="40" as="geometry" />
        </mxCell>
        <mxCell id="y87tl3NbrVbizZRoQz8M-28" style="edgeStyle=orthogonalEdgeStyle;rounded=0;orthogonalLoop=1;jettySize=auto;html=1;entryX=1;entryY=0.5;entryDx=0;entryDy=0;startArrow=none;startFill=0;" edge="1" parent="1" source="y87tl3NbrVbizZRoQz8M-29" target="y87tl3NbrVbizZRoQz8M-22">
          <mxGeometry relative="1" as="geometry">
            <Array as="points">
              <mxPoint x="810" y="260" />
              <mxPoint x="810" y="740" />
            </Array>
          </mxGeometry>
        </mxCell>
        <mxCell id="y87tl3NbrVbizZRoQz8M-29" value="portal_update_subscriber" style="rounded=1;whiteSpace=wrap;html=1;" vertex="1" parent="1">
          <mxGeometry x="561" y="240" width="160" height="40" as="geometry" />
        </mxCell>
        <mxCell id="y87tl3NbrVbizZRoQz8M-30" value="fn" style="shape=mxgraph.electrical.abstract.function;html=1;shadow=0;dashed=0;align=center;strokeWidth=1;fontSize=24;rounded=0;fillColor=default;" vertex="1" parent="1">
          <mxGeometry x="501" y="320" width="40" height="40" as="geometry" />
        </mxCell>
        <mxCell id="y87tl3NbrVbizZRoQz8M-31" style="edgeStyle=orthogonalEdgeStyle;rounded=0;orthogonalLoop=1;jettySize=auto;html=1;entryX=1;entryY=0.5;entryDx=0;entryDy=0;startArrow=none;startFill=0;" edge="1" parent="1" source="y87tl3NbrVbizZRoQz8M-32" target="y87tl3NbrVbizZRoQz8M-22">
          <mxGeometry relative="1" as="geometry">
            <Array as="points">
              <mxPoint x="810" y="340" />
              <mxPoint x="810" y="740" />
            </Array>
          </mxGeometry>
        </mxCell>
        <mxCell id="y87tl3NbrVbizZRoQz8M-32" value="portal_create_subscriber" style="rounded=1;whiteSpace=wrap;html=1;" vertex="1" parent="1">
          <mxGeometry x="561" y="320" width="160" height="40" as="geometry" />
        </mxCell>
        <mxCell id="y87tl3NbrVbizZRoQz8M-33" value="fn" style="shape=mxgraph.electrical.abstract.function;html=1;shadow=0;dashed=0;align=center;strokeWidth=1;fontSize=24;rounded=0;fillColor=default;" vertex="1" parent="1">
          <mxGeometry x="499" y="400" width="40" height="40" as="geometry" />
        </mxCell>
        <mxCell id="y87tl3NbrVbizZRoQz8M-34" style="edgeStyle=orthogonalEdgeStyle;rounded=0;orthogonalLoop=1;jettySize=auto;html=1;entryX=0.5;entryY=0;entryDx=0;entryDy=0;startArrow=none;startFill=0;" edge="1" parent="1" source="y87tl3NbrVbizZRoQz8M-35" target="y87tl3NbrVbizZRoQz8M-44">
          <mxGeometry relative="1" as="geometry">
            <Array as="points">
              <mxPoint x="640" y="460" />
              <mxPoint x="722" y="460" />
            </Array>
          </mxGeometry>
        </mxCell>
        <mxCell id="y87tl3NbrVbizZRoQz8M-35" value="email_notif_subscriber" style="rounded=1;whiteSpace=wrap;html=1;" vertex="1" parent="1">
          <mxGeometry x="559" y="400" width="161" height="40" as="geometry" />
        </mxCell>
        <mxCell id="y87tl3NbrVbizZRoQz8M-36" value="fn" style="shape=mxgraph.electrical.abstract.function;html=1;shadow=0;dashed=0;align=center;strokeWidth=1;fontSize=24;rounded=0;fillColor=default;" vertex="1" parent="1">
          <mxGeometry x="112" y="240" width="40" height="40" as="geometry" />
        </mxCell>
        <mxCell id="y87tl3NbrVbizZRoQz8M-37" style="edgeStyle=orthogonalEdgeStyle;rounded=0;orthogonalLoop=1;jettySize=auto;html=1;entryX=0.25;entryY=1;entryDx=0;entryDy=0;startArrow=none;startFill=0;" edge="1" parent="1" source="y87tl3NbrVbizZRoQz8M-39" target="y87tl3NbrVbizZRoQz8M-13">
          <mxGeometry relative="1" as="geometry">
            <Array as="points">
              <mxPoint x="420" y="350" />
            </Array>
          </mxGeometry>
        </mxCell>
        <mxCell id="y87tl3NbrVbizZRoQz8M-38" style="edgeStyle=orthogonalEdgeStyle;rounded=0;orthogonalLoop=1;jettySize=auto;html=1;startArrow=none;startFill=0;" edge="1" parent="1" source="y87tl3NbrVbizZRoQz8M-39" target="y87tl3NbrVbizZRoQz8M-5">
          <mxGeometry relative="1" as="geometry">
            <Array as="points">
              <mxPoint x="250" y="440" />
              <mxPoint x="225" y="440" />
            </Array>
          </mxGeometry>
        </mxCell>
        <mxCell id="y87tl3NbrVbizZRoQz8M-39" value="redact_consumption_report" style="rounded=1;whiteSpace=wrap;html=1;" vertex="1" parent="1">
          <mxGeometry x="170" y="320" width="160" height="40" as="geometry" />
        </mxCell>
        <mxCell id="y87tl3NbrVbizZRoQz8M-40" value="fn" style="shape=mxgraph.electrical.abstract.function;html=1;shadow=0;dashed=0;align=center;strokeWidth=1;fontSize=24;rounded=0;fillColor=default;" vertex="1" parent="1">
          <mxGeometry x="110" y="320" width="40" height="40" as="geometry" />
        </mxCell>
        <mxCell id="y87tl3NbrVbizZRoQz8M-41" style="edgeStyle=orthogonalEdgeStyle;rounded=0;orthogonalLoop=1;jettySize=auto;html=1;entryX=0.5;entryY=0;entryDx=0;entryDy=0;entryPerimeter=0;startArrow=none;startFill=0;" edge="1" parent="1" source="y87tl3NbrVbizZRoQz8M-42" target="y87tl3NbrVbizZRoQz8M-6">
          <mxGeometry relative="1" as="geometry">
            <Array as="points">
              <mxPoint x="250" y="300" />
              <mxPoint x="90" y="300" />
              <mxPoint x="90" y="440" />
              <mxPoint x="120" y="440" />
            </Array>
          </mxGeometry>
        </mxCell>
        <mxCell id="y87tl3NbrVbizZRoQz8M-42" value="redact_insights_report" style="rounded=1;whiteSpace=wrap;html=1;" vertex="1" parent="1">
          <mxGeometry x="170" y="240" width="160" height="40" as="geometry" />
        </mxCell>
        <mxCell id="y87tl3NbrVbizZRoQz8M-43" value="" style="sketch=0;aspect=fixed;html=1;points=[];align=center;image;fontSize=12;image=img/lib/mscae/SendGrid_Accounts.svg;rounded=0;dashed=1;strokeWidth=4;fillColor=none;" vertex="1" parent="1">
          <mxGeometry x="600" y="535" width="50" height="50" as="geometry" />
        </mxCell>
        <mxCell id="y87tl3NbrVbizZRoQz8M-44" value="Sendgrid" style="rounded=1;whiteSpace=wrap;html=1;strokeWidth=1;fillColor=default;" vertex="1" parent="1">
          <mxGeometry x="662" y="530" width="120" height="60" as="geometry" />
        </mxCell>
        <mxCell id="y87tl3NbrVbizZRoQz8M-45" style="edgeStyle=orthogonalEdgeStyle;rounded=0;orthogonalLoop=1;jettySize=auto;html=1;entryX=0;entryY=0.5;entryDx=0;entryDy=0;fontColor=#00FF08;startArrow=none;startFill=0;" edge="1" parent="1" source="y87tl3NbrVbizZRoQz8M-46" target="y87tl3NbrVbizZRoQz8M-26">
          <mxGeometry relative="1" as="geometry" />
        </mxCell>
        <mxCell id="y87tl3NbrVbizZRoQz8M-46" value="&lt;font color=&quot;#00ff08&quot;&gt;ENTRY&lt;/font&gt;&lt;br&gt;(redact container)" style="ellipse;whiteSpace=wrap;html=1;aspect=fixed;rounded=0;strokeWidth=1;fillColor=default;" vertex="1" parent="1">
          <mxGeometry x="70" y="20" width="70" height="70" as="geometry" />
        </mxCell>
      </root>
    </mxGraphModel>
  </diagram>
</mxfile>
